# xmcd
#
# Track frame offsets: 
#        150
#        12020
#        26070
#        37867
#        57540
#        75227
#        90682
#        108832
#        124652
#        140735
#
# Disc length: 2069 seconds
#
# Revision: 2
# Processed by: cddbd v1.4PL0 Copyright (c) Steve Scherf et al.
# Submitted via: ExactAudioCopy v0.90b4
#
DISCID=7408130a
DTITLE=Alan Jackson - Everything I Love
DYEAR=1996
DGENRE=Country
TTITLE0=Little Bitty
TTITLE1=Everything I Love
TTITLE2=Buicks To the Moon
TTITLE3=Between The Devil And Me
TTITLE4=There Goes
TTITLE5=A House With No Curtains
TTITLE6=Who's Cheatin' Who
TTITLE7=Walk On The Rock
TTITLE8=Must've Had A Ball
TTITLE9=It's Time You Learned About Good-Bye
EXTD=
EXTT0=
EXTT1=
EXTT2=
EXTT3=
EXTT4=
EXTT5=
EXTT6=
EXTT7=
EXTT8=
EXTT9=
PLAYORDER=
